# xmcd
#
# Track frame offsets:
#	150
#	12246
#	30395
#	46743
#	70070
#	83687
#	106918
#	124722
#	145455
#	165694
#	181613
#
# Disc length: 2681 seconds
#
# Revision: 1
# Processed by: cddbd v1.5.2PL0 Copyright (c) Steve Scherf et al.
# Submitted via: audiograbber 1.83.01
#
DISCID=7f0a770b
DTITLE=Sinner - Back to the Bullet
DYEAR=1990
DGENRE=Hard Rock
TTITLE0=Back to the Bullet
TTITLE1=Tear Down the Wall
TTITLE2=Every Second Counts
TTITLE3=Call My Name
TTITLE4=Crazy Horses
TTITLE5=In the Name of Rock'n'Roll
TTITLE6=Wildest Dreams
TTITLE7=Down Undercover
TTITLE8=Face to Face
TTITLE9=Crying in the Wires
TTITLE10=She's Got the Look
EXTD=
EXTT0=
EXTT1=
EXTT2=
EXTT3=
EXTT4=
EXTT5=
EXTT6=
EXTT7=
EXTT8=
EXTT9=
EXTT10=
PLAYORDER=
